<svg width="251" height="56" viewBox="0 0 251 56" fill="none" xmlns="http://www.w3.org/2000/svg">
<g id="Logo Thin">
<path id="STANFORD COMPUTATIONAL POLICY LAB" d="M5.25586 11.2959C3.80859 10.8799 2.75391 10.3701 2.0918 9.7666C1.43555 9.15723 1.10742 8.40723 1.10742 7.5166C1.10742 6.50879 1.50879 5.67676 2.31152 5.02051C3.12012 4.3584 4.16895 4.02734 5.45801 4.02734C6.33691 4.02734 7.11914 4.19727 7.80469 4.53711C8.49609 4.87695 9.0293 5.3457 9.4043 5.94336C9.78516 6.54102 9.97559 7.19434 9.97559 7.90332H8.2793C8.2793 7.12988 8.0332 6.52344 7.54102 6.08398C7.04883 5.63867 6.35449 5.41602 5.45801 5.41602C4.62598 5.41602 3.97559 5.60059 3.50684 5.96973C3.04395 6.33301 2.8125 6.83984 2.8125 7.49023C2.8125 8.01172 3.03223 8.4541 3.47168 8.81738C3.91699 9.1748 4.66992 9.50293 5.73047 9.80176C6.79688 10.1006 7.62891 10.4316 8.22656 10.7949C8.83008 11.1523 9.27539 11.5713 9.5625 12.0518C9.85547 12.5322 10.002 13.0977 10.002 13.748C10.002 14.7852 9.59766 15.6172 8.78906 16.2441C7.98047 16.8652 6.89941 17.1758 5.5459 17.1758C4.66699 17.1758 3.84668 17.0088 3.08496 16.6748C2.32324 16.335 1.73438 15.8721 1.31836 15.2861C0.908203 14.7002 0.703125 14.0352 0.703125 13.291H2.39941C2.39941 14.0645 2.68359 14.6768 3.25195 15.1279C3.82617 15.5732 4.59082 15.7959 5.5459 15.7959C6.43652 15.7959 7.11914 15.6143 7.59375 15.251C8.06836 14.8877 8.30566 14.3926 8.30566 13.7656C8.30566 13.1387 8.08594 12.6553 7.64648 12.3154C7.20703 11.9697 6.41016 11.6299 5.25586 11.2959ZM21.0146 5.5918H16.9014V17H15.2227V5.5918H11.1182V4.20312H21.0146V5.5918ZM29.2764 13.6602H23.915L22.7109 17H20.9707L25.8574 4.20312H27.334L32.2295 17H30.498L29.2764 13.6602ZM24.4248 12.2715H28.7754L26.5957 6.28613L24.4248 12.2715ZM43.7871 17H42.0908L35.6484 7.13867V17H33.9521V4.20312H35.6484L42.1084 14.1084V4.20312H43.7871V17ZM53.8418 11.3486H48.4717V17H46.7842V4.20312H54.7119V5.5918H48.4717V9.96875H53.8418V11.3486ZM66.5771 11.0146C66.5771 12.2686 66.3662 13.3643 65.9443 14.3018C65.5225 15.2334 64.9248 15.9453 64.1514 16.4375C63.3779 16.9297 62.4756 17.1758 61.4443 17.1758C60.4365 17.1758 59.543 16.9297 58.7637 16.4375C57.9844 15.9395 57.3779 15.2334 56.9443 14.3193C56.5166 13.3994 56.2969 12.3359 56.2852 11.1289V10.2061C56.2852 8.97559 56.499 7.88867 56.9268 6.94531C57.3545 6.00195 57.958 5.28125 58.7373 4.7832C59.5225 4.2793 60.4189 4.02734 61.4268 4.02734C62.4521 4.02734 63.3545 4.27637 64.1338 4.77441C64.9189 5.2666 65.5225 5.98438 65.9443 6.92773C66.3662 7.86523 66.5771 8.95801 66.5771 10.2061V11.0146ZM64.8984 10.1885C64.8984 8.6709 64.5938 7.50781 63.9844 6.69922C63.375 5.88477 62.5225 5.47754 61.4268 5.47754C60.3604 5.47754 59.5195 5.88477 58.9043 6.69922C58.2949 7.50781 57.9814 8.63281 57.9639 10.0742V11.0146C57.9639 12.4854 58.2715 13.6426 58.8867 14.4863C59.5078 15.3242 60.3604 15.7432 61.4443 15.7432C62.5342 15.7432 63.3779 15.3477 63.9756 14.5566C64.5732 13.7598 64.8809 12.6201 64.8984 11.1377V10.1885ZM73.8018 11.8232H70.7959V17H69.0996V4.20312H73.3359C74.7773 4.20312 75.8848 4.53125 76.6582 5.1875C77.4375 5.84375 77.8271 6.79883 77.8271 8.05273C77.8271 8.84961 77.6104 9.54395 77.1768 10.1357C76.749 10.7275 76.1514 11.1699 75.3838 11.4629L78.3896 16.8945V17H76.5791L73.8018 11.8232ZM70.7959 10.4434H73.3887C74.2266 10.4434 74.8916 10.2266 75.3838 9.79297C75.8818 9.35938 76.1309 8.7793 76.1309 8.05273C76.1309 7.26172 75.8936 6.65527 75.4189 6.2334C74.9502 5.81152 74.2705 5.59766 73.3799 5.5918H70.7959V10.4434ZM80.2002 17V4.20312H83.8125C84.9258 4.20312 85.9102 4.44922 86.7656 4.94141C87.6211 5.43359 88.2803 6.13379 88.7432 7.04199C89.2119 7.9502 89.4492 8.99316 89.4551 10.1709V10.9883C89.4551 12.1953 89.2207 13.2529 88.752 14.1611C88.2891 15.0693 87.624 15.7666 86.7568 16.2529C85.8955 16.7393 84.8906 16.9883 83.7422 17H80.2002ZM81.8877 5.5918V15.6201H83.6631C84.9639 15.6201 85.9746 15.2158 86.6953 14.4072C87.4219 13.5986 87.7852 12.4473 87.7852 10.9531V10.2061C87.7852 8.75293 87.4424 7.625 86.7568 6.82227C86.0771 6.01367 85.1104 5.60352 83.8564 5.5918H81.8877ZM10.8984 33.9395C10.7402 35.293 10.2393 36.3389 9.39551 37.0771C8.55762 37.8096 7.44141 38.1758 6.04688 38.1758C4.53516 38.1758 3.32227 37.6338 2.4082 36.5498C1.5 35.4658 1.0459 34.0156 1.0459 32.1992V30.9688C1.0459 29.7793 1.25684 28.7334 1.67871 27.8311C2.10645 26.9287 2.70996 26.2373 3.48926 25.7568C4.26855 25.2705 5.1709 25.0273 6.19629 25.0273C7.55566 25.0273 8.64551 25.4082 9.46582 26.1699C10.2861 26.9258 10.7637 27.9746 10.8984 29.3164H9.20215C9.05566 28.2969 8.73633 27.5586 8.24414 27.1016C7.75781 26.6445 7.0752 26.416 6.19629 26.416C5.11816 26.416 4.27148 26.8145 3.65625 27.6113C3.04688 28.4082 2.74219 29.542 2.74219 31.0127V32.252C2.74219 33.6406 3.03223 34.7451 3.6123 35.5654C4.19238 36.3857 5.00391 36.7959 6.04688 36.7959C6.98438 36.7959 7.70215 36.585 8.2002 36.1631C8.7041 35.7354 9.03809 34.9941 9.20215 33.9395H10.8984ZM23.0537 32.0146C23.0537 33.2686 22.8428 34.3643 22.4209 35.3018C21.999 36.2334 21.4014 36.9453 20.6279 37.4375C19.8545 37.9297 18.9521 38.1758 17.9209 38.1758C16.9131 38.1758 16.0195 37.9297 15.2402 37.4375C14.4609 36.9395 13.8545 36.2334 13.4209 35.3193C12.9932 34.3994 12.7734 33.3359 12.7617 32.1289V31.2061C12.7617 29.9756 12.9756 28.8887 13.4033 27.9453C13.8311 27.002 14.4346 26.2812 15.2139 25.7832C15.999 25.2793 16.8955 25.0273 17.9033 25.0273C18.9287 25.0273 19.8311 25.2764 20.6104 25.7744C21.3955 26.2666 21.999 26.9844 22.4209 27.9277C22.8428 28.8652 23.0537 29.958 23.0537 31.2061V32.0146ZM21.375 31.1885C21.375 29.6709 21.0703 28.5078 20.4609 27.6992C19.8516 26.8848 18.999 26.4775 17.9033 26.4775C16.8369 26.4775 15.9961 26.8848 15.3809 27.6992C14.7715 28.5078 14.458 29.6328 14.4404 31.0742V32.0146C14.4404 33.4854 14.748 34.6426 15.3633 35.4863C15.9844 36.3242 16.8369 36.7432 17.9209 36.7432C19.0107 36.7432 19.8545 36.3477 20.4521 35.5566C21.0498 34.7598 21.3574 33.6201 21.375 32.1377V31.1885ZM27.7646 25.2031L31.9482 35.6445L36.1318 25.2031H38.3203V38H36.6328V33.0166L36.791 27.6377L32.5898 38H31.2979L27.1055 27.6641L27.2725 33.0166V38H25.585V25.2031H27.7646ZM42.9873 32.9902V38H41.2998V25.2031H46.0195C47.4199 25.2031 48.5156 25.5605 49.3066 26.2754C50.1035 26.9902 50.502 27.9365 50.502 29.1143C50.502 30.3564 50.1123 31.3145 49.333 31.9883C48.5596 32.6562 47.4492 32.9902 46.002 32.9902H42.9873ZM42.9873 31.6104H46.0195C46.9219 31.6104 47.6133 31.3994 48.0938 30.9775C48.5742 30.5498 48.8145 29.9346 48.8145 29.1318C48.8145 28.3701 48.5742 27.7607 48.0938 27.3037C47.6133 26.8467 46.9541 26.6094 46.1162 26.5918H42.9873V31.6104ZM61.6641 25.2031V33.9043C61.6582 35.1113 61.2773 36.0986 60.5215 36.8662C59.7715 37.6338 58.752 38.0645 57.4629 38.1582L57.0146 38.1758C55.6143 38.1758 54.498 37.7979 53.666 37.042C52.834 36.2861 52.4121 35.2461 52.4004 33.9219V25.2031H54.0703V33.8691C54.0703 34.7949 54.3252 35.5156 54.835 36.0312C55.3447 36.541 56.0713 36.7959 57.0146 36.7959C57.9697 36.7959 58.6992 36.541 59.2031 36.0312C59.7129 35.5215 59.9678 34.8037 59.9678 33.8779V25.2031H61.6641ZM73.1689 26.5918H69.0557V38H67.377V26.5918H63.2725V25.2031H73.1689V26.5918ZM81.4307 34.6602H76.0693L74.8652 38H73.125L78.0117 25.2031H79.4883L84.3838 38H82.6523L81.4307 34.6602ZM76.5791 33.2715H80.9297L78.75 27.2861L76.5791 33.2715ZM93.8057 26.5918H89.6924V38H88.0137V26.5918H83.9092V25.2031H93.8057V26.5918ZM97.5146 38H95.8271V25.2031H97.5146V38ZM110.452 32.0146C110.452 33.2686 110.241 34.3643 109.819 35.3018C109.397 36.2334 108.8 36.9453 108.026 37.4375C107.253 37.9297 106.351 38.1758 105.319 38.1758C104.312 38.1758 103.418 37.9297 102.639 37.4375C101.859 36.9395 101.253 36.2334 100.819 35.3193C100.392 34.3994 100.172 33.3359 100.16 32.1289V31.2061C100.16 29.9756 100.374 28.8887 100.802 27.9453C101.229 27.002 101.833 26.2812 102.612 25.7832C103.397 25.2793 104.294 25.0273 105.302 25.0273C106.327 25.0273 107.229 25.2764 108.009 25.7744C108.794 26.2666 109.397 26.9844 109.819 27.9277C110.241 28.8652 110.452 29.958 110.452 31.2061V32.0146ZM108.773 31.1885C108.773 29.6709 108.469 28.5078 107.859 27.6992C107.25 26.8848 106.397 26.4775 105.302 26.4775C104.235 26.4775 103.395 26.8848 102.779 27.6992C102.17 28.5078 101.856 29.6328 101.839 31.0742V32.0146C101.839 33.4854 102.146 34.6426 102.762 35.4863C103.383 36.3242 104.235 36.7432 105.319 36.7432C106.409 36.7432 107.253 36.3477 107.851 35.5566C108.448 34.7598 108.756 33.6201 108.773 32.1377V31.1885ZM122.818 38H121.122L114.68 28.1387V38H112.983V25.2031H114.68L121.14 35.1084V25.2031H122.818V38ZM133.04 34.6602H127.679L126.475 38H124.734L129.621 25.2031H131.098L135.993 38H134.262L133.04 34.6602ZM128.188 33.2715H132.539L130.359 27.2861L128.188 33.2715ZM139.412 36.6201H145.477V38H137.716V25.2031H139.412V36.6201ZM3.17285 53.9902V59H1.48535V46.2031H6.20508C7.60547 46.2031 8.70117 46.5605 9.49219 47.2754C10.2891 47.9902 10.6875 48.9365 10.6875 50.1143C10.6875 51.3564 10.2979 52.3145 9.51855 52.9883C8.74512 53.6562 7.63477 53.9902 6.1875 53.9902H3.17285ZM3.17285 52.6104H6.20508C7.10742 52.6104 7.79883 52.3994 8.2793 51.9775C8.75977 51.5498 9 50.9346 9 50.1318C9 49.3701 8.75977 48.7607 8.2793 48.3037C7.79883 47.8467 7.13965 47.6094 6.30176 47.5918H3.17285V52.6104ZM22.6846 53.0146C22.6846 54.2686 22.4736 55.3643 22.0518 56.3018C21.6299 57.2334 21.0322 57.9453 20.2588 58.4375C19.4854 58.9297 18.583 59.1758 17.5518 59.1758C16.5439 59.1758 15.6504 58.9297 14.8711 58.4375C14.0918 57.9395 13.4854 57.2334 13.0518 56.3193C12.624 55.3994 12.4043 54.3359 12.3926 53.1289V52.2061C12.3926 50.9756 12.6064 49.8887 13.0342 48.9453C13.4619 48.002 14.0654 47.2812 14.8447 46.7832C15.6299 46.2793 16.5264 46.0273 17.5342 46.0273C18.5596 46.0273 19.4619 46.2764 20.2412 46.7744C21.0264 47.2666 21.6299 47.9844 22.0518 48.9277C22.4736 49.8652 22.6846 50.958 22.6846 52.2061V53.0146ZM21.0059 52.1885C21.0059 50.6709 20.7012 49.5078 20.0918 48.6992C19.4824 47.8848 18.6299 47.4775 17.5342 47.4775C16.4678 47.4775 15.627 47.8848 15.0117 48.6992C14.4023 49.5078 14.0889 50.6328 14.0713 52.0742V53.0146C14.0713 54.4854 14.3789 55.6426 14.9941 56.4863C15.6152 57.3242 16.4678 57.7432 17.5518 57.7432C18.6416 57.7432 19.4854 57.3477 20.083 56.5566C20.6807 55.7598 20.9883 54.6201 21.0059 53.1377V52.1885ZM26.9121 57.6201H32.9766V59H25.2158V46.2031H26.9121V57.6201ZM36.7119 59H35.0244V46.2031H36.7119V59ZM49.2188 54.9395C49.0605 56.293 48.5596 57.3389 47.7158 58.0771C46.8779 58.8096 45.7617 59.1758 44.3672 59.1758C42.8555 59.1758 41.6426 58.6338 40.7285 57.5498C39.8203 56.4658 39.3662 55.0156 39.3662 53.1992V51.9688C39.3662 50.7793 39.5771 49.7334 39.999 48.8311C40.4268 47.9287 41.0303 47.2373 41.8096 46.7568C42.5889 46.2705 43.4912 46.0273 44.5166 46.0273C45.876 46.0273 46.9658 46.4082 47.7861 47.1699C48.6064 47.9258 49.084 48.9746 49.2188 50.3164H47.5225C47.376 49.2969 47.0566 48.5586 46.5645 48.1016C46.0781 47.6445 45.3955 47.416 44.5166 47.416C43.4385 47.416 42.5918 47.8145 41.9766 48.6113C41.3672 49.4082 41.0625 50.542 41.0625 52.0127V53.252C41.0625 54.6406 41.3525 55.7451 41.9326 56.5654C42.5127 57.3857 43.3242 57.7959 44.3672 57.7959C45.3047 57.7959 46.0225 57.585 46.5205 57.1631C47.0244 56.7354 47.3584 55.9941 47.5225 54.9395H49.2188ZM55.4326 52.6279L58.7725 46.2031H60.6885L56.2764 54.2275V59H54.5889V54.2275L50.1768 46.2031H52.1104L55.4326 52.6279ZM68.502 57.6201H74.5664V59H66.8057V46.2031H68.502V57.6201ZM83.7334 55.6602H78.3721L77.168 59H75.4277L80.3145 46.2031H81.791L86.6865 59H84.9551L83.7334 55.6602ZM78.8818 54.2715H83.2324L81.0527 48.2861L78.8818 54.2715ZM88.4092 59V46.2031H92.5928C93.9814 46.2031 95.0244 46.4902 95.7217 47.0645C96.4248 47.6387 96.7764 48.4883 96.7764 49.6133C96.7764 50.2109 96.6064 50.7412 96.2666 51.2041C95.9268 51.6611 95.4639 52.0156 94.8779 52.2676C95.5693 52.4609 96.1143 52.8301 96.5127 53.375C96.917 53.9141 97.1191 54.5586 97.1191 55.3086C97.1191 56.457 96.7471 57.3594 96.0029 58.0156C95.2588 58.6719 94.207 59 92.8477 59H88.4092ZM90.0967 53.0146V57.6201H92.8828C93.668 57.6201 94.2861 57.418 94.7373 57.0137C95.1943 56.6035 95.4229 56.041 95.4229 55.3262C95.4229 53.7852 94.585 53.0146 92.9092 53.0146H90.0967ZM90.0967 51.6611H92.6455C93.3838 51.6611 93.9727 51.4766 94.4121 51.1074C94.8574 50.7383 95.0801 50.2373 95.0801 49.6045C95.0801 48.9014 94.875 48.3916 94.4648 48.0752C94.0547 47.7529 93.4307 47.5918 92.5928 47.5918H90.0967V51.6611Z" transform="translate(105 -4)" fill="white"/>
<g id="Group 3">
<g id="Group">
<g id="Rectangle 2" transform="translate(23.5327 40.4865)">
<rect width="44.5353" height="4.49668" fill="white"/>
<rect x="0.25" y="0.25" width="44.0353" height="3.99668" stroke="white" stroke-width="0.5"/>
</g>
<g id="Rectangle 2.1" transform="translate(23.5327 15.305)">
<rect width="44.5353" height="4.49668" fill="white"/>
<rect x="0.25" y="0.25" width="44.0353" height="3.99668" stroke="white" stroke-width="0.5"/>
</g>
<g id="Rectangle 3" transform="translate(26.5693 20.701)">
<rect width="5.06083" height="18.8861" fill="white"/>
<rect x="0.25" y="0.25" width="4.56083" height="18.3861" stroke="white" stroke-width="0.5"/>
</g>
<g id="Rectangle 3.1" transform="translate(37.7029 20.701)">
<rect width="5.06083" height="18.8861" fill="white"/>
<rect x="0.25" y="0.25" width="4.56083" height="18.3861" stroke="white" stroke-width="0.5"/>
</g>
<g id="Rectangle 3.3" transform="translate(48.8369 20.701)">
<rect width="5.06083" height="18.8861" fill="white"/>
<rect x="0.25" y="0.25" width="4.56083" height="18.3861" stroke="white" stroke-width="0.5"/>
</g>
<g id="Rectangle 3.2" transform="translate(59.9707 20.701)">
<rect width="5.06083" height="18.8861" fill="white"/>
<rect x="0.25" y="0.25" width="4.56083" height="18.3861" stroke="white" stroke-width="0.5"/>
</g>
<g id="Polygon" transform="translate(23.5327 8.11035)">
<path d="M22.2676 0L41.552 6.07052L2.9833 6.07052L22.2676 0Z" fill="white"/>
<path d="M4.61008 5.82052L22.2676 0.262094L39.9252 5.82052H4.61008Z" stroke="white" stroke-width="0.5"/>
</g>
</g>
<path id="{" d="M17.4915 55C10.0479 53.1451 6.25223 48.9201 6.10462 42.325V36.3388C6.10462 32.1231 4.06975 30.0153 0 30.0153V25.0128C4.06975 25.0128 6.10462 22.8956 6.10462 18.6612V12.7031C6.16788 9.33061 7.14842 6.6045 9.04623 4.52478C10.9651 2.44507 13.7802 0.936808 17.4915 0L19.0097 3.93459C15.3617 4.98382 13.4745 7.85045 13.3479 12.5345V18.605C13.3479 22.8206 11.5239 25.781 7.87591 27.4859C11.5239 29.2097 13.3479 32.1981 13.3479 36.4512V42.4374C13.4745 47.1214 15.3617 49.9881 19.0097 51.0373L17.4915 55Z" transform="translate(0 1)" fill="white"/>
<path id="}" d="M0 51.0373C3.71127 49.9693 5.60908 47.0465 5.69343 42.2688V36.4231C5.69343 32.095 7.61233 29.1254 11.4501 27.5141C7.61233 25.9027 5.69343 22.905 5.69343 18.5207V12.7031C5.60908 7.9254 3.71127 5.00255 0 3.93459L1.51825 0C5.35604 0.955544 8.2133 2.51065 10.09 4.6653C11.9667 6.80123 12.9051 9.60228 12.9051 13.0685V18.6893C12.9051 22.905 14.9505 25.0128 19.0414 25.0128V30.0153C14.9505 30.0153 12.9051 32.1231 12.9051 36.3388V41.8753C12.9051 45.379 11.9562 48.1988 10.0584 50.3347C8.18167 52.4894 5.33496 54.0445 1.51825 55L0 51.0373Z" transform="translate(71.9585 1)" fill="white"/>
</g>
</g>
</svg>
